<svg xmlns="http://www.w3.org/2000/svg" width="224" height="28" viewBox="0 0 224 28" shape-rendering="crispEdges">
<g id="active-center" transform="translate(0,0)"><rect x="0" y="0" width="28" height="28" fill="#000000" fill-opacity="0.001"/><rect x="3" y="4" width="22" height="21" fill="#1A181C"/><rect x="3" y="4" width="22" height="1" fill="#3D3439"/><rect x="3" y="4" width="1" height="21" fill="#3D3439"/><rect x="24" y="4" width="1" height="21" fill="#3D3439"/><rect x="3" y="24" width="22" height="1" fill="#3D3439"/><rect x="6" y="7" width="2" height="2" fill="#312A2F"/><rect x="20" y="20" width="2" height="2" fill="#312A2F"/><rect x="13" y="7" width="2" height="13" fill="#CFC5C1"/><rect x="9" y="11" width="4" height="2" fill="#CFC5C1"/><rect x="15" y="11" width="4" height="2" fill="#CFC5C1"/><rect x="10" y="9" width="2" height="2" fill="#CFC5C1"/><rect x="16" y="9" width="2" height="2" fill="#CFC5C1"/></g>
<g id="inactive-center" transform="translate(32,0)"><rect x="0" y="0" width="28" height="28" fill="#000000" fill-opacity="0.001"/><rect x="3" y="4" width="22" height="21" fill="#1A181C"/><rect x="3" y="4" width="22" height="1" fill="#3D3439"/><rect x="3" y="4" width="1" height="21" fill="#3D3439"/><rect x="24" y="4" width="1" height="21" fill="#3D3439"/><rect x="3" y="24" width="22" height="1" fill="#3D3439"/><rect x="6" y="7" width="2" height="2" fill="#312A2F"/><rect x="20" y="20" width="2" height="2" fill="#312A2F"/><rect x="13" y="7" width="2" height="13" fill="#573231"/><rect x="9" y="11" width="4" height="2" fill="#573231"/><rect x="15" y="11" width="4" height="2" fill="#573231"/><rect x="10" y="9" width="2" height="2" fill="#573231"/><rect x="16" y="9" width="2" height="2" fill="#573231"/></g>
<g id="hover-center" transform="translate(64,0)"><rect x="0" y="0" width="28" height="28" fill="#000000" fill-opacity="0.001"/><rect x="3" y="4" width="22" height="21" fill="#513834"/><rect x="3" y="4" width="22" height="1" fill="#B36C58"/><rect x="3" y="4" width="1" height="21" fill="#B36C58"/><rect x="24" y="4" width="1" height="21" fill="#B36C58"/><rect x="3" y="24" width="22" height="1" fill="#B36C58"/><rect x="6" y="7" width="2" height="2" fill="#915A4B"/><rect x="20" y="20" width="2" height="2" fill="#915A4B"/><rect x="13" y="7" width="2" height="13" fill="#B36C58"/><rect x="9" y="11" width="4" height="2" fill="#B36C58"/><rect x="15" y="11" width="4" height="2" fill="#B36C58"/><rect x="10" y="9" width="2" height="2" fill="#B36C58"/><rect x="16" y="9" width="2" height="2" fill="#B36C58"/></g>
<g id="hover-inactive-center" transform="translate(96,0)"><rect x="0" y="0" width="28" height="28" fill="#000000" fill-opacity="0.001"/><rect x="3" y="4" width="22" height="21" fill="#513834"/><rect x="3" y="4" width="22" height="1" fill="#B36C58"/><rect x="3" y="4" width="1" height="21" fill="#B36C58"/><rect x="24" y="4" width="1" height="21" fill="#B36C58"/><rect x="3" y="24" width="22" height="1" fill="#B36C58"/><rect x="6" y="7" width="2" height="2" fill="#915A4B"/><rect x="20" y="20" width="2" height="2" fill="#915A4B"/><rect x="13" y="7" width="2" height="13" fill="#B36C58"/><rect x="9" y="11" width="4" height="2" fill="#B36C58"/><rect x="15" y="11" width="4" height="2" fill="#B36C58"/><rect x="10" y="9" width="2" height="2" fill="#B36C58"/><rect x="16" y="9" width="2" height="2" fill="#B36C58"/></g>
<g id="pressed-center" transform="translate(128,0)"><rect x="0" y="0" width="28" height="28" fill="#000000" fill-opacity="0.001"/><rect x="3" y="4" width="22" height="21" fill="#52362F"/><rect x="3" y="4" width="22" height="1" fill="#3D3439"/><rect x="3" y="4" width="1" height="21" fill="#3D3439"/><rect x="24" y="4" width="1" height="21" fill="#3D3439"/><rect x="3" y="24" width="22" height="1" fill="#3D3439"/><rect x="6" y="7" width="2" height="2" fill="#443536"/><rect x="20" y="20" width="2" height="2" fill="#443536"/><rect x="13" y="7" width="2" height="13" fill="#CFC5C1"/><rect x="9" y="11" width="4" height="2" fill="#CFC5C1"/><rect x="15" y="11" width="4" height="2" fill="#CFC5C1"/><rect x="10" y="9" width="2" height="2" fill="#CFC5C1"/><rect x="16" y="9" width="2" height="2" fill="#CFC5C1"/></g>
<g id="pressed-inactive-center" transform="translate(160,0)"><rect x="0" y="0" width="28" height="28" fill="#000000" fill-opacity="0.001"/><rect x="3" y="4" width="22" height="21" fill="#52362F"/><rect x="3" y="4" width="22" height="1" fill="#3D3439"/><rect x="3" y="4" width="1" height="21" fill="#3D3439"/><rect x="24" y="4" width="1" height="21" fill="#3D3439"/><rect x="3" y="24" width="22" height="1" fill="#3D3439"/><rect x="6" y="7" width="2" height="2" fill="#443536"/><rect x="20" y="20" width="2" height="2" fill="#443536"/><rect x="13" y="7" width="2" height="13" fill="#573231"/><rect x="9" y="11" width="4" height="2" fill="#573231"/><rect x="15" y="11" width="4" height="2" fill="#573231"/><rect x="10" y="9" width="2" height="2" fill="#573231"/><rect x="16" y="9" width="2" height="2" fill="#573231"/></g>
<g id="deactivated-center" transform="translate(192,0)"><rect x="0" y="0" width="28" height="28" fill="#000000" fill-opacity="0.001"/><rect x="3" y="4" width="22" height="21" fill="#1A181C"/><rect x="3" y="4" width="22" height="1" fill="#3D3439"/><rect x="3" y="4" width="1" height="21" fill="#3D3439"/><rect x="24" y="4" width="1" height="21" fill="#3D3439"/><rect x="3" y="24" width="22" height="1" fill="#3D3439"/><rect x="6" y="7" width="2" height="2" fill="#312A2F"/><rect x="20" y="20" width="2" height="2" fill="#312A2F"/><rect x="13" y="7" width="2" height="13" fill="#75403E"/><rect x="9" y="11" width="4" height="2" fill="#75403E"/><rect x="15" y="11" width="4" height="2" fill="#75403E"/><rect x="10" y="9" width="2" height="2" fill="#75403E"/><rect x="16" y="9" width="2" height="2" fill="#75403E"/></g>
</svg>
